# xmcd
#
# Track frame offsets: 
#        150
#        20281
#        40355
#        63171
#        82667
#        99490
#        121817
#        141035
#        155266
#        172564
#
# Disc length: 2486 seconds
#
# Revision: 0
# Processed by: cddbd v1.5.2PL0 Copyright (c) Steve Scherf et al.
# Submitted via: ExactAudioCopyFreeDBPlugin 1.0
#
DISCID=6509b40a
DTITLE=Greg Nagy - Stranded
DYEAR=2015
DGENRE=Blues
TTITLE0=Stranded
TTITLE1=Walk Out That Door
TTITLE2=Ain't No Love In The Heart Of The City
TTITLE3=I Won't Give Up
TTITLE4=Run Away With You
TTITLE5=Long Way To Memphis
TTITLE6=Still Doing Fine
TTITLE7=Been Such A Long Time
TTITLE8=Sometimes
TTITLE9=Welcome Home
EXTD=
EXTT0=
EXTT1=
EXTT2=
EXTT3=
EXTT4=
EXTT5=
EXTT6=
EXTT7=
EXTT8=
EXTT9=
PLAYORDER=
